.
..............................Site Info...........................

 -   http://www.scenetime.com  *_*   

Due to high demands SceneTime is going to Close sign up on march/15, hurry up! get in before the doors are closed.

     We care to share . Join us on  http://www.scenetime.com 

    Be the first to get new release at  http://www.scenetime.com

        Seed back for speed


...................................NFO:.................................................[IMG]http://image.leechfrom.me/images/834Untitled_1gg_1_1_.gif[/IMG]

 
TITLE: 

Alvin And The Chipmunks Chipwrecked 2011 DVDRiP AC3 XViD - INSPiRAL

IMDB: 
 
http://www.imdb.com/title/tt1615918/


SOURCES:

VIDEO -  MPTDVD THANKS
AUDIO -  MPTDVD THANKS
SUBS  - None Add

STATS:

Video
ID                                       : 0
Format                                   : MPEG-4 Visual
Format profile                           : Advanced Simple@L5
Format settings, BVOP                    : 2
Format settings, QPel                    : No
Format settings, GMC                     : No warppoints
Format settings, Matrix                  : Default (MPEG)
Muxing mode                              : Packed bitstream
Codec ID                                 : XVID
Codec ID/Hint                            : XviD
Duration                                 : 1h 27mn
Bit rate                                 : 1 790 Kbps
Width                                    : 720 pixels
Height                                   : 384 pixels
Display aspect ratio                     : 1.875
Frame rate                               : 23.976 fps
Color space                              : YUV
Chroma subsampling                       : 4:2:0
Bit depth                                : 8 bits
Scan type                                : Progressive
Compression mode                         : Lossy
Bits/(Pixel*Frame)                       : 0.270
Stream size                              : 1.09 GiB (80%)
Writing library                          : XviD 64

Audio
ID                                       : 1
Format                                   : AC-3
Format/Info                              : Audio Coding 3
Mode extension                           : CM (complete main)
Codec ID                                 : 2000
Duration                                 : 1h 27mn
Bit rate mode                            : Constant
Bit rate                                 : 448 Kbps
Channel(s)                               : 6 channels
Channel positions                        : Front: L C R, Side: L R, LFE
Sampling rate                            : 48.0 KHz
Bit depth                                : 16 bits
Compression mode                         : Lossy
Stream size                              : 279 MiB (20%)
Alignment                                : Aligned on interleaves
Interleave, duration                     : 42 ms (1.00 video frame)
Interleave, preload duration             : 512 ms




NOTES:

Straight forward rip of MPTDVD's release ....nothing fancy done,just done the right way.
Audio was just stripped and remuxed to our encode.


SCREENS:

[IMG]http://i.imgur.com/56AOm.png[/IMG]
[IMG]http://i.imgur.com/ZByzc.png[/IMG]
[IMG]http://i.imgur.com/1YgzS.png[/IMG]
[IMG]http://i.imgur.com/vC27N.png[/IMG]

GREETZ: 

Past,Present and Future

[IMG]http://image.leechfrom.me/images/834Untitled_1gg_1_1_.gif[/IMG]